<?xml version="1.0" encoding="utf-8"?>
<!-- Svg Vector Icons : http://www.onlinewebfonts.com/icon -->
<!DOCTYPE svg PUBLIC "-//W3C//DTD SVG 1.1//EN" "http://www.w3.org/Graphics/SVG/1.1/DTD/svg11.dtd">
<svg version="1.1" xmlns="http://www.w3.org/2000/svg" xmlns:xlink="http://www.w3.org/1999/xlink" x="0px" y="0px" viewBox="0 0 1000 1000" enable-background="new 0 0 1000 1000" xml:space="preserve">
<a xlink:href="http://www.onlinewebfonts.com">
<metadata> Svg Vector Icons : http://www.onlinewebfonts.com/icon </metadata>
<g><g transform="translate(0.000000,511.000000) scale(0.100000,-0.100000)"><path style="fill:white" d="M1349.3,5040.5C741.5,4882,271.2,4393.1,136.4,3785.4c-37-161.2-39.6-480.9-34.3-2470.6c7.9-2560.5-7.9-2351.7,203.5-2571c179.7-192.9,253.7-214.1,724-224.6l414.9-10.6v-187.6c0-306.5,111-459.8,354.1-486.2c66.1-7.9,121.6-18.5,121.6-23.8c0-5.3-274.8-504.7-610.4-1109.8C654.3-4474.7,646.4-4493.2,741.5-4678.1c84.6-161.2,169.1-190.3,573.4-190.3c330.3,0,367.3,5.3,446.6,58.1c68.7,47.6,235.2,327.6,803.3,1350.2l716.1,1286.8l195.5-5.3l195.5-7.9l676.4-1215.5c827.1-1485,763.6-1379.3,864.1-1426.9c118.9-55.5,721.4-55.5,837.6,0c118.9,58.1,185,158.5,195.5,301.2c10.6,116.3-13.2,166.5-607.7,1231.3c-599.8,1075.4-615.7,1109.8-549.6,1117.7c37,2.6,118.9,26.4,179.7,47.6c158.6,58.1,222,169.1,237.8,433.4l15.8,211.4h190.3c338.2,0,578.7,134.7,721.4,406.9c68.7,129.5,71.3,153.3,79.3,605.1c5.3,256.3,15.9,467.7,21.2,467.7c7.9,0,618.3-333,1358.2-742.5l1347.6-742.5l222,7.9c192.9,10.6,232.5,18.5,293.3,76.6c150.6,137.4,145.3,50.2,145.3,2462.7c0,2124.5-2.6,2232.8-50.2,2320c-76.6,145.3-192.9,198.2-425.4,198.2h-198.2l-1347.6-747.8L6530.9,2081l-15.8,811.2c-10.6,652.7-23.8,845.6-60.8,969.7c-163.8,570.8-639.5,1030.5-1220.8,1178.5c-668.5,171.7-1416.3-111-1794.2-679.1c-58.1-84.5-111-163.8-121.6-174.4c-10.6-13.2-74,60.8-140,163.8c-68.7,103.1-192.9,245.8-274.8,319.7c-169.1,153.3-496.8,322.4-731.9,383.1C1957,5106.6,1581.8,5101.3,1349.3,5040.5z M1935.9,4007.3c171.8-44.9,364.6-224.6,422.8-399c50.2-150.6,39.6-338.2-26.4-467.7c-100.4-190.3-348.8-346.2-552.3-346.2c-214,0-446.6,148-552.3,354.1c-145.3,272.2-21.1,657.9,256.3,800.6C1653.1,4039,1756.2,4052.2,1935.9,4007.3z M5003.7,3994.1c129.5-26.4,290.6-161.2,362-306.5c301.2-602.5-428.1-1175.9-938-737.2c-140,118.9-206.1,264.2-208.7,454.5c0,285.4,208.7,552.2,475.6,602.5C4808.1,4028.5,4850.4,4025.8,5003.7,3994.1z M4826.6,878.8V205H3307.3H1787.9v673.8v673.8h1519.4h1519.4V878.8z"/></g></g>
</a>
</svg>